<svg height="448pt" viewBox="0 -8 448 448" width="448pt" xmlns="http://www.w3.org/2000/svg"><path d="m260.105469 116.183594 87.015625-52.183594h-182.21875l86.976562 52.175781c2.53125 1.519531 5.691406 1.523438 8.226563.007813zm0 0"/><path d="m368 181.585938v-111.472657l-72.6875 43.613281zm0 0"/><path d="m167.0625 336-6 48h125.875l-6-48zm0 0"/><path d="m268.359375 129.894531c-7.601563 4.59375-17.125 4.59375-24.726563 0l-12.664062-7.597656-74.671875 69.703125h199.40625l-74.671875-69.703125zm0 0"/><path d="m144 70.113281v111.472657l72.6875-67.859376zm0 0"/><path d="m440 0h-432c-4.417969 0-8 3.582031-8 8v248h448v-248c0-4.417969-3.582031-8-8-8zm-424 72h16v16h-16zm32 32v16h-16v-16zm-16 80h-16v-16h16zm0-48h32v16h-32zm80 48h-64v-16h64zm0-32h-32v-16h32zm0-32h-48v-16h48zm0-32h-64v-16h64zm272 104c.019531 4.25-1.65625 8.332031-4.664062 11.335938-3.003907 3.007812-7.085938 4.683593-11.335938 4.664062h-224c-4.128906 0-8.101562-1.585938-11.097656-4.433594-3.085938-3.0625-4.84375-7.21875-4.902344-11.566406v-128c-.011719-4.246094 1.667969-8.324219 4.671875-11.328125s7.082031-4.683594 11.328125-4.671875h224c4.246094-.015625 8.328125 1.664062 11.332031 4.667969 3.003907 3.003906 4.683594 7.085937 4.667969 11.332031zm0 0"/><path d="m304 400h-160v16h-48v16h256v-16h-48zm0 0"/><path d="m0 312c0 4.417969 3.582031 8 8 8h432c4.417969 0 8-3.582031 8-8v-40h-448zm384-24h32v16h-32zm0 0"/></svg>